<?xml version="1.0" standalone="no"?>
<!DOCTYPE svg PUBLIC "-//W3C//DTD SVG 20010904//EN"
 "http://www.w3.org/TR/2001/REC-SVG-20010904/DTD/svg10.dtd">
<svg version="1.0" xmlns="http://www.w3.org/2000/svg"
 width="1024.000000pt" height="1024.000000pt" viewBox="0 0 1024.000000 1024.000000"
 preserveAspectRatio="xMidYMid meet">

<g transform="translate(0.000000,1024.000000) scale(0.100000,-0.100000)"
fill="#000000" stroke="none">
<path d="M5105 8499 c-240 -11 -385 -40 -655 -129 -131 -43 -349 -145 -486
-227 -254 -154 -538 -424 -702 -671 -182 -273 -313 -593 -361 -884 -62 -369
-51 -673 34 -989 57 -214 150 -432 262 -613 335 -543 832 -910 1438 -1061 237
-58 323 -69 580 -68 234 0 332 11 545 59 210 47 572 196 716 294 146 100 320
239 394 317 473 492 693 1024 691 1674 -1 363 -70 665 -226 979 -160 323 -415
634 -690 840 -71 54 -161 117 -200 140 -83 51 -345 178 -430 208 -296 105
-588 147 -910 131z m450 -303 c299 -45 639 -194 914 -402 136 -102 321 -297
419 -442 132 -194 255 -458 303 -649 32 -129 69 -429 69 -565 0 -182 -38 -411
-94 -573 -79 -228 -86 -242 -120 -236 -4 1 -5 -10 -2 -24 8 -30 0 -48 -17 -38
-25 15 -38 12 -31 -9 5 -16 2 -19 -13 -16 -13 2 -19 14 -21 41 -3 35 -5 37
-38 37 -27 0 -34 -4 -34 -20 0 -11 -4 -20 -10 -20 -5 0 -10 7 -10 16 0 8 -5
12 -10 9 -6 -4 -8 -15 -5 -24 3 -11 -2 -24 -12 -32 -15 -12 -16 -12 -8 1 8 13
7 13 -8 1 -18 -14 -24 -36 -7 -26 6 3 10 1 10 -5 0 -7 -6 -10 -14 -7 -15 6
-55 -33 -114 -113 -52 -71 -138 -153 -232 -220 -41 -30 -93 -69 -114 -87 -48
-40 -337 -184 -426 -212 -123 -39 -207 -59 -218 -52 -6 4 0 27 18 64 15 32 30
74 33 93 l6 34 -74 0 c-85 0 -82 -8 -40 105 59 155 54 258 -17 383 -24 41 -66
99 -95 128 -79 80 -228 144 -336 144 -45 0 -141 -26 -204 -55 -52 -23 -157
-119 -197 -180 -11 -16 -22 -23 -24 -17 -2 7 -8 9 -14 6 -7 -4 -6 -9 2 -14 9
-5 6 -24 -9 -75 -26 -82 -28 -199 -5 -276 17 -57 58 -144 79 -169 7 -8 23 -33
35 -55 22 -40 22 -40 1 -21 -43 39 -19 -15 58 -133 l15 -24 -72 6 c-72 7 -284
73 -491 152 -117 45 -153 63 -246 125 -40 28 -76 50 -80 50 -4 0 -38 21 -75
46 -76 51 -271 247 -367 369 -34 43 -197 363 -208 407 -4 15 -13 32 -20 38
-10 8 -11 2 -5 -30 4 -23 16 -47 26 -55 15 -11 17 -16 7 -26 -11 -11 -13 -10
-14 2 0 7 -5 3 -11 -11 -6 -16 -12 -20 -15 -12 -8 22 -33 -7 -33 -39 0 -33 0
-33 -32 -18 -18 8 -32 35 -60 117 -88 261 -106 544 -58 922 45 353 255 770
539 1072 113 120 213 201 383 311 266 172 559 277 883 316 107 13 435 5 560
-13z m-2235 -2752 c0 -21 -17 -17 -23 5 -3 14 -1 18 9 14 8 -3 14 -11 14 -19z
m40 6 c0 -5 -4 -10 -10 -10 -5 0 -10 5 -10 10 0 6 5 10 10 10 6 0 10 -4 10
-10z m-4 -63 c-4 -16 3 -36 20 -61 14 -20 24 -45 22 -54 -2 -11 -18 12 -42 57
-27 52 -33 72 -22 68 9 -4 16 -2 16 3 0 6 3 10 6 10 3 0 4 -10 0 -23z m1949
-120 c60 -17 139 -101 159 -167 9 -30 16 -72 16 -95 0 -49 -23 -132 -45 -160
-11 -14 -10 -5 5 34 12 29 19 59 17 65 -2 6 -1 21 4 32 9 24 -13 64 -35 64 -8
0 -31 -21 -52 -47 -21 -27 -42 -51 -47 -54 -5 -3 -8 -9 -8 -13 3 -20 -1 -25
-14 -20 -15 6 -19 -4 -15 -39 1 -11 -7 -21 -18 -24 -12 -3 -22 -16 -26 -34 -4
-22 -15 -33 -46 -45 -22 -9 -40 -22 -40 -30 0 -19 -3 -18 -58 10 -177 90 -221
330 -86 469 73 74 163 91 289 54z m-77 -554 c-10 -2 -26 -2 -35 0 -10 3 -2 5
17 5 19 0 27 -2 18 -5z"/>
<path d="M5080 7779 c-399 -52 -771 -364 -886 -744 -24 -78 -27 -108 -28 -231
l-1 -140 42 -85 c57 -115 124 -179 218 -208 78 -24 130 -26 200 -7 72 19 126
49 178 98 65 63 93 126 117 268 24 145 54 209 118 254 59 42 96 54 170 55 91
1 145 -15 196 -61 82 -71 114 -179 82 -271 -26 -70 -63 -107 -155 -149 -47
-22 -113 -52 -146 -67 -160 -75 -279 -233 -320 -426 -10 -46 -19 -149 -22
-241 -6 -155 -5 -162 16 -183 21 -21 27 -21 352 -21 204 0 338 4 349 10 26 14
40 70 40 160 0 112 1 112 93 151 175 73 313 187 421 348 75 111 116 208 146
341 62 273 -49 598 -284 830 -261 258 -557 363 -896 319z m401 -218 c216 -70
422 -243 509 -426 73 -153 96 -278 79 -418 -17 -138 -50 -233 -119 -336 -89
-133 -188 -208 -365 -276 -136 -53 -165 -90 -174 -225 l-6 -85 -185 -3 -185
-2 -3 53 c-5 96 15 210 49 284 52 108 113 162 272 237 163 77 239 142 289 244
31 63 33 73 33 177 0 104 -2 114 -32 175 -85 173 -238 270 -422 270 -127 0
-225 -33 -311 -105 -103 -86 -152 -185 -176 -352 -12 -91 -19 -113 -47 -151
-39 -55 -88 -82 -145 -82 -69 0 -128 42 -167 120 -38 74 -28 254 20 387 76
211 273 406 503 499 105 42 185 54 342 50 130 -3 155 -6 241 -35z"/>
<path d="M6704 6531 c-55 -25 -121 -86 -145 -132 -40 -79 -13 -177 73 -261 98
-96 206 -91 316 15 112 108 87 293 -48 359 -76 37 -143 44 -196 19z m131 -152
c45 -40 46 -75 4 -124 -39 -44 -76 -46 -120 -7 -27 24 -31 35 -31 73 1 85 80
117 147 58z"/>
<path d="M3534 6526 c-17 -8 -47 -28 -68 -46 -104 -92 -103 -232 3 -343 68
-72 126 -87 223 -57 73 22 125 69 159 144 49 108 -7 239 -126 295 -52 24 -143
28 -191 7z m169 -156 c38 -43 35 -74 -12 -121 -50 -50 -81 -51 -127 -5 -45 45
-45 82 -2 132 29 33 35 36 72 31 29 -4 49 -15 69 -37z"/>
<path d="M7132 5997 c-13 -80 -30 -147 -57 -217 -7 -19 -27 -73 -45 -120 -17
-47 -35 -93 -41 -103 -5 -10 -7 -22 -4 -27 3 -5 1 -11 -5 -15 -5 -3 -10 -11
-10 -16 0 -21 18 2 44 54 14 30 26 63 26 75 0 11 5 24 10 27 6 3 10 17 10 31
0 13 4 24 8 24 5 0 14 22 21 49 11 45 41 90 41 63 0 -6 -5 -12 -11 -14 -19 -6
1 -36 22 -31 10 3 19 1 19 -5 0 -5 12 -12 26 -15 18 -3 22 -1 15 6 -14 14 -14
77 -1 77 5 0 8 19 7 43 -2 35 -7 43 -25 45 -20 3 -22 9 -22 72 0 38 -4 71 -8
74 -4 2 -13 -32 -20 -77z"/>
<path d="M7222 5900 c0 -14 2 -19 5 -12 2 6 2 18 0 25 -3 6 -5 1 -5 -13z"/>
<path d="M3983 5760 c-93 -14 -169 -100 -180 -204 -6 -59 4 -95 44 -157 56
-86 185 -111 278 -54 71 44 108 108 113 194 4 61 2 70 -30 116 -35 52 -103
100 -153 107 -16 3 -49 2 -72 -2z m82 -162 c24 -19 27 -26 22 -65 -9 -81 -66
-108 -126 -58 -37 32 -46 57 -30 87 29 58 87 74 134 36z"/>
<path d="M6305 5736 c-88 -40 -135 -114 -135 -212 0 -68 20 -112 70 -158 73
-66 181 -73 267 -18 56 36 78 70 94 141 28 130 -77 271 -203 271 -24 0 -65
-11 -93 -24z m130 -137 c45 -40 47 -78 6 -120 -38 -37 -76 -38 -113 -2 -32 31
-36 66 -12 103 40 59 68 63 119 19z"/>
<path d="M3305 5511 c-3 -5 -1 -12 5 -16 5 -3 10 1 10 9 0 18 -6 21 -15 7z"/>
<path d="M7120 5495 c0 -8 2 -15 4 -15 2 0 6 7 10 15 3 8 1 15 -4 15 -6 0 -10
-7 -10 -15z"/>
<path d="M6939 5460 c0 -3 -3 -16 -5 -30 -4 -24 -4 -24 13 -8 13 14 15 21 5
30 -7 7 -12 10 -13 8z"/>
<path d="M6109 5414 c-23 -25 -23 -26 -2 -15 23 12 38 29 31 37 -3 2 -15 -8
-29 -22z"/>
<path d="M6906 5365 c-13 -19 -13 -23 -2 -19 8 3 16 14 19 25 7 25 3 24 -17
-6z"/>
<path d="M5697 4844 c-10 -10 36 -54 56 -54 12 0 17 8 17 30 0 27 -3 30 -33
30 -19 0 -37 -3 -40 -6z"/>
<path d="M5013 4900 c1 -21 64 -54 92 -48 14 2 8 10 -24 33 -52 35 -70 39 -68
15z"/>
<path d="M5120 4770 c0 -5 5 -10 10 -10 6 0 10 -8 10 -17 0 -15 2 -16 10 -3 5
9 5 19 -2 27 -12 15 -28 17 -28 3z"/>
<path d="M7135 4261 c-59 -36 -80 -68 -79 -120 1 -58 27 -107 74 -138 41 -29
72 -29 120 -2 49 28 72 69 72 129 -1 118 -99 186 -187 131z"/>
<path d="M2673 3680 c-118 -22 -243 -89 -319 -171 -48 -53 -97 -150 -119 -234
-20 -78 -19 -217 1 -286 72 -245 317 -428 542 -404 l62 7 83 -78 c90 -85 178
-154 195 -154 12 0 154 105 240 178 35 29 55 55 59 74 7 35 14 34 110 -6 162
-68 378 -34 512 81 29 25 46 33 49 25 11 -33 71 -99 106 -116 36 -18 47 -18
155 -7 64 7 125 11 136 10 11 0 175 -3 364 -5 335 -4 345 -4 388 17 24 12 56
36 70 54 l27 33 33 -44 c19 -24 42 -48 53 -54 10 -5 76 -10 147 -10 151 0 170
8 230 94 21 30 41 55 44 56 3 0 14 -18 24 -40 24 -53 74 -96 126 -110 23 -6
82 -9 133 -7 73 3 101 9 132 27 l40 23 31 -22 c28 -21 39 -23 152 -19 l122 3
38 40 c21 22 42 49 48 60 11 20 12 20 35 -1 56 -51 111 -57 173 -19 22 13 43
25 47 25 3 0 18 -20 32 -45 15 -24 35 -49 46 -55 10 -5 78 -10 151 -10 121 0
135 2 155 21 l22 21 32 -24 32 -23 306 3 c169 2 322 8 339 13 43 14 98 80 112
134 6 24 11 86 11 138 0 77 -3 99 -19 118 -12 16 -16 30 -10 44 13 34 10 112
-7 161 -15 45 -15 49 6 91 19 39 21 56 18 157 -3 102 -5 116 -30 153 -47 71
-55 73 -417 76 -317 2 -321 2 -342 -20 l-22 -21 -28 20 c-25 18 -40 20 -170
19 -182 -2 -178 0 -280 -153 l-51 -78 -69 89 c-116 150 -126 155 -307 149
-100 -3 -113 -5 -135 -26 l-25 -24 -32 24 c-27 19 -46 24 -126 26 -80 3 -100
1 -138 -18 -44 -21 -46 -21 -72 -3 -26 17 -70 18 -695 20 l-666 2 -23 -24 -23
-24 -31 22 c-58 41 -263 36 -314 -8 l-27 -24 -22 27 c-21 27 -22 27 -150 27
-110 -1 -134 -4 -163 -20 -55 -33 -71 -64 -84 -164 -20 -145 -40 -144 -49 2
-4 57 -10 75 -34 105 -52 64 -81 74 -213 80 -106 4 -123 2 -162 -17 -28 -13
-53 -36 -68 -61 -14 -22 -29 -40 -34 -40 -5 0 -23 11 -40 24 -105 79 -306 122
-453 96z m299 -198 c78 -38 153 -115 194 -198 54 -111 42 -271 -28 -364 -18
-23 -37 -49 -42 -55 -7 -9 5 -29 39 -67 52 -57 85 -106 85 -125 0 -7 -25 -31
-55 -54 l-55 -41 -28 23 c-21 19 -98 100 -152 162 -3 4 -37 0 -74 -10 -58 -14
-77 -14 -133 -4 -279 51 -418 318 -297 566 74 150 180 207 380 202 90 -2 107
-6 166 -35z m559 -210 c4 -254 9 -272 80 -320 29 -20 44 -23 101 -20 72 4 104
20 142 72 20 26 21 43 24 261 3 268 -8 245 115 245 l67 0 0 -240 c0 -220 -2
-245 -22 -307 -30 -91 -108 -173 -189 -197 -88 -26 -147 -29 -224 -12 -122 29
-204 95 -252 205 -30 68 -45 239 -36 426 l6 120 92 -3 93 -3 3 -227z m877 223
c3 -3 4 -211 3 -552 l-1 -183 -89 0 -89 0 -4 142 c-1 78 -1 247 0 376 l4 233
86 -7 c48 -4 88 -8 90 -9z m752 -55 l0 -70 -122 -151 c-168 -205 -218 -270
-218 -280 0 -5 80 -9 178 -9 l177 0 -3 -77 c-2 -43 -5 -82 -6 -88 -2 -6 -112
-9 -310 -7 l-306 3 0 54 c0 61 -4 55 238 363 62 79 112 147 112 153 0 5 -64 9
-155 9 l-155 0 0 80 0 80 273 3 c149 1 278 3 285 5 9 1 12 -17 12 -68z m718
-17 l3 -83 -115 0 -115 0 6 -290 6 -290 -91 0 c-91 0 -92 0 -98 27 -4 15 -4
138 -1 275 4 136 4 254 1 263 -5 12 -25 15 -104 15 -80 0 -99 3 -104 16 -8 20
-8 73 0 113 l6 31 272 3 c149 1 285 3 301 2 l30 0 3 -82z m320 -288 l-3 -376
-90 3 -90 3 -3 367 -2 367 72 4 c40 1 83 4 96 5 l23 2 -3 -375z m452 269 c175
-246 171 -242 183 -211 5 15 191 263 220 295 18 20 30 22 115 22 l95 0 -6
-227 c-4 -124 -7 -293 -7 -374 l0 -147 -77 -4 c-43 -2 -82 0 -87 4 -6 4 -12
104 -15 222 l-6 214 -97 -142 c-54 -78 -111 -154 -127 -170 -39 -37 -42 -34
-137 109 -40 61 -86 129 -102 152 l-29 42 -6 -127 c-4 -70 -7 -166 -7 -214 l0
-88 -89 0 c-74 0 -90 3 -95 17 -4 9 -4 178 0 375 l7 358 96 0 96 0 75 -106z
m1110 96 l227 0 6 -72 c3 -49 1 -75 -7 -80 -6 -4 -91 -8 -188 -8 l-178 0 0
-67 0 -68 175 3 175 3 0 -82 0 -82 -180 6 -180 5 0 -48 c0 -85 -11 -80 201
-80 l189 0 0 -85 0 -85 -282 2 -283 3 -3 340 c-1 187 0 355 4 374 l5 34 46 -7
c25 -3 148 -6 273 -6z"/>
<path d="M2718 3340 c-113 -34 -173 -135 -149 -252 21 -98 106 -168 204 -168
26 0 47 2 47 5 0 3 -12 24 -26 46 -18 28 -24 49 -20 66 13 49 59 43 135 -17
28 -22 53 -40 56 -40 15 0 45 97 45 146 0 146 -151 256 -292 214z"/>
<path d="M5097 2456 c-119 -50 -196 -124 -234 -224 -65 -171 -24 -355 105
-473 71 -65 93 -75 183 -88 61 -8 86 -7 134 5 139 36 225 108 287 240 27 58
33 83 36 162 4 88 3 96 -27 156 -91 185 -321 291 -484 222z m174 -167 c121
-37 184 -185 130 -305 -19 -41 -41 -65 -41 -45 0 6 5 11 11 11 5 0 7 5 4 10
-3 6 -1 10 4 10 7 0 11 23 11 54 0 74 -19 80 -76 24 -50 -50 -51 -50 -126 -52
-57 -1 -58 -1 -64 -34 -4 -18 -4 -43 -2 -56 12 -61 -84 48 -103 117 -20 75 15
186 72 229 61 46 114 56 180 37z"/>
<path d="M3998 2283 l-366 -3 -31 -35 c-35 -40 -37 -54 -16 -94 26 -51 33 -51
543 -43 l474 7 24 28 c32 37 31 81 -1 111 -32 30 -67 37 -174 34 -47 -2 -251
-4 -453 -5z"/>
<path d="M5878 2278 c-48 -10 -81 -53 -74 -96 3 -19 13 -43 22 -53 16 -18 40
-19 501 -19 l485 0 29 29 c37 38 39 82 4 116 -13 14 -32 26 -42 26 -68 5 -898
3 -925 -3z"/>
</g>
</svg>
